<svg xmlns="http://www.w3.org/2000/svg" xmlns:xlink="http://www.w3.org/1999/xlink" xmlns:lucid="lucid" width="480" height="320"><g transform="translate(-280 -220)" lucid:page-tab-id="0_0"><path d="M300 240h440v280H300z" stroke="#000" stroke-width="2" fill="#fff"/><use xlink:href="#a" transform="matrix(1,0,0,1,305,245) translate(174.25 14.4)"/><use xlink:href="#b" transform="matrix(1,0,0,1,305,245) translate(250.10000000000002 14.4)"/><use xlink:href="#c" transform="matrix(1,0,0,1,305,245) translate(270.1 14.4)"/><use xlink:href="#d" transform="matrix(1,0,0,1,305,245) translate(370.05 14.4)"/><path d="M480 350c0 38.66-31.34 70-70 70s-70-31.34-70-70 31.34-70 70-70 70 31.34 70 70z" stroke="#000" stroke-width="2" fill="#ff8f80" fill-opacity=".64"/><use xlink:href="#e" transform="matrix(1,0,0,1,345,285) translate(17.054999999999996 28.41)"/><g opacity=".71"><path d="M580 390c0 60.75-49.25 110-110 110s-110-49.25-110-110 49.25-110 110-110 110 49.25 110 110z" stroke="#000" stroke-width="2" fill="#a3d977"/><use xlink:href="#f" transform="matrix(1,0,0,1,365,285) translate(71.08 201.003648)"/></g><g opacity=".78"><path d="M480 360c0 22.1-17.9 40-40 40s-40-17.9-40-40 17.9-40 40-40 40 17.9 40 40z" stroke="#000" stroke-width="2" fill="#99d2f2"/><use xlink:href="#g" transform="matrix(1,0,0,1,405,325) translate(11.024999999999999 38.4625)"/></g><defs><path d="M232-93c-1 65-40 97-104 97C67 4 28-28 28-90v-158h33c8 89-33 224 67 224 102 0 64-133 71-224h33v155" id="h"/><path d="M117-194c89-4 53 116 60 194h-32v-121c0-31-8-49-39-48C34-167 62-67 57 0H25l-1-190h30c1 10-1 24 2 32 11-22 29-35 61-36" id="i"/><path d="M24-231v-30h32v30H24zM24 0v-190h32V0H24" id="j"/><path d="M108 0H70L1-190h34L89-25l56-165h34" id="k"/><path d="M100-194c63 0 86 42 84 106H49c0 40 14 67 53 68 26 1 43-12 49-29l28 8c-11 28-37 45-77 45C44 4 14-33 15-96c1-61 26-98 85-98zm52 81c6-60-76-77-97-28-3 7-6 17-6 28h103" id="l"/><path d="M114-163C36-179 61-72 57 0H25l-1-190h30c1 12-1 29 2 39 6-27 23-49 58-41v29" id="m"/><path d="M135-143c-3-34-86-38-87 0 15 53 115 12 119 90S17 21 10-45l28-5c4 36 97 45 98 0-10-56-113-15-118-90-4-57 82-63 122-42 12 7 21 19 24 35" id="n"/><g id="a"><use transform="matrix(0.05,0,0,0.05,0,0)" xlink:href="#h"/><use transform="matrix(0.05,0,0,0.05,12.950000000000001,0)" xlink:href="#i"/><use transform="matrix(0.05,0,0,0.05,22.950000000000003,0)" xlink:href="#j"/><use transform="matrix(0.05,0,0,0.05,26.900000000000002,0)" xlink:href="#k"/><use transform="matrix(0.05,0,0,0.05,35.900000000000006,0)" xlink:href="#l"/><use transform="matrix(0.05,0,0,0.05,45.900000000000006,0)" xlink:href="#m"/><use transform="matrix(0.05,0,0,0.05,51.85,0)" xlink:href="#n"/><use transform="matrix(0.05,0,0,0.05,60.85,0)" xlink:href="#l"/></g><path d="M100-194c62-1 85 37 85 99 1 63-27 99-86 99S16-35 15-95c0-66 28-99 85-99zM99-20c44 1 53-31 53-75 0-43-8-75-51-75s-53 32-53 75 10 74 51 75" id="o"/><path d="M101-234c-31-9-42 10-38 44h38v23H63V0H32v-167H5v-23h27c-7-52 17-82 69-68v24" id="p"/><g id="b"><use transform="matrix(0.05,0,0,0.05,0,0)" xlink:href="#o"/><use transform="matrix(0.05,0,0,0.05,10,0)" xlink:href="#p"/></g><path d="M233-177c-1 41-23 64-60 70L243 0h-38l-65-103H63V0H30v-248c88 3 205-21 203 71zM63-129c60-2 137 13 137-47 0-61-80-42-137-45v92" id="q"/><path d="M115-194c53 0 69 39 70 98 0 66-23 100-70 100C84 3 66-7 56-30L54 0H23l1-261h32v101c10-23 28-34 59-34zm-8 174c40 0 45-34 45-75 0-40-5-75-45-74-42 0-51 32-51 76 0 43 10 73 51 73" id="r"/><path d="M84 4C-5 8 30-112 23-190h32v120c0 31 7 50 39 49 72-2 45-101 50-169h31l1 190h-30c-1-10 1-25-2-33-11 22-28 36-60 37" id="s"/><path d="M59-47c-2 24 18 29 38 22v24C64 9 27 4 27-40v-127H5v-23h24l9-43h21v43h35v23H59v120" id="t"/><g id="c"><use transform="matrix(0.05,0,0,0.05,0,0)" xlink:href="#q"/><use transform="matrix(0.05,0,0,0.05,12.950000000000001,0)" xlink:href="#o"/><use transform="matrix(0.05,0,0,0.05,22.950000000000003,0)" xlink:href="#r"/><use transform="matrix(0.05,0,0,0.05,32.95,0)" xlink:href="#s"/><use transform="matrix(0.05,0,0,0.05,42.95,0)" xlink:href="#n"/><use transform="matrix(0.05,0,0,0.05,51.95,0)" xlink:href="#t"/><use transform="matrix(0.05,0,0,0.05,56.95,0)" xlink:href="#i"/><use transform="matrix(0.05,0,0,0.05,66.95,0)" xlink:href="#l"/><use transform="matrix(0.05,0,0,0.05,76.95,0)" xlink:href="#n"/><use transform="matrix(0.05,0,0,0.05,85.95,0)" xlink:href="#n"/></g><path d="M212-179c-10-28-35-45-73-45-59 0-87 40-87 99 0 60 29 101 89 101 43 0 62-24 78-52l27 14C228-24 195 4 139 4 59 4 22-46 18-125c-6-104 99-153 187-111 19 9 31 26 39 46" id="u"/><path d="M106-169C34-169 62-67 57 0H25v-261h32l-1 103c12-21 28-36 61-36 89 0 53 116 60 194h-32v-121c2-32-8-49-39-48" id="v"/><path d="M96-169c-40 0-48 33-48 73s9 75 48 75c24 0 41-14 43-38l32 2c-6 37-31 61-74 61-59 0-76-41-82-99-10-93 101-131 147-64 4 7 5 14 7 22l-32 3c-4-21-16-35-41-35" id="w"/><path d="M143 0L79-87 56-68V0H24v-261h32v163l83-92h37l-77 82L181 0h-38" id="x"/><g id="d"><use transform="matrix(0.05,0,0,0.05,0,0)" xlink:href="#u"/><use transform="matrix(0.05,0,0,0.05,12.950000000000001,0)" xlink:href="#v"/><use transform="matrix(0.05,0,0,0.05,22.950000000000003,0)" xlink:href="#l"/><use transform="matrix(0.05,0,0,0.05,32.95,0)" xlink:href="#w"/><use transform="matrix(0.05,0,0,0.05,41.95,0)" xlink:href="#x"/><use transform="matrix(0.05,0,0,0.05,50.95,0)" xlink:href="#n"/></g><path d="M141-36C126-15 110 5 73 4 37 3 15-17 15-53c-1-64 63-63 125-63 3-35-9-54-41-54-24 1-41 7-42 31l-33-3c5-37 33-52 76-52 45 0 72 20 72 64v82c-1 20 7 32 28 27v20c-31 9-61-2-59-35zM48-53c0 20 12 33 32 33 41-3 63-29 60-74-43 2-92-5-92 41" id="y"/><path d="M24 0v-261h32V0H24" id="z"/><g id="e"><use transform="matrix(0.05,0,0,0.05,0,0)" xlink:href="#q"/><use transform="matrix(0.05,0,0,0.05,12.950000000000001,0)" xlink:href="#l"/><use transform="matrix(0.05,0,0,0.05,22.950000000000003,0)" xlink:href="#y"/><use transform="matrix(0.05,0,0,0.05,32.95,0)" xlink:href="#n"/><use transform="matrix(0.05,0,0,0.05,41.95,0)" xlink:href="#o"/><use transform="matrix(0.05,0,0,0.05,51.95,0)" xlink:href="#i"/><use transform="matrix(0.05,0,0,0.05,61.95,0)" xlink:href="#y"/><use transform="matrix(0.05,0,0,0.05,71.95,0)" xlink:href="#r"/><use transform="matrix(0.05,0,0,0.05,81.95,0)" xlink:href="#z"/><use transform="matrix(0.05,0,0,0.05,85.9,0)" xlink:href="#l"/></g><path d="M63-220v92h138v28H63V0H30v-248h175v28H63" id="A"/><g id="f"><use transform="matrix(0.05,0,0,0.05,0,0)" xlink:href="#A"/><use transform="matrix(0.05,0,0,0.05,10.950000000000001,0)" xlink:href="#l"/><use transform="matrix(0.05,0,0,0.05,20.950000000000003,0)" xlink:href="#y"/><use transform="matrix(0.05,0,0,0.05,30.950000000000003,0)" xlink:href="#n"/><use transform="matrix(0.05,0,0,0.05,39.95,0)" xlink:href="#j"/><use transform="matrix(0.05,0,0,0.05,43.900000000000006,0)" xlink:href="#r"/><use transform="matrix(0.05,0,0,0.05,53.900000000000006,0)" xlink:href="#z"/><use transform="matrix(0.05,0,0,0.05,57.85,0)" xlink:href="#l"/></g><path d="M30-248c87 1 191-15 191 75 0 78-77 80-158 76V0H30v-248zm33 125c57 0 124 11 124-50 0-59-68-47-124-48v98" id="B"/><path d="M115-194c55 1 70 41 70 98S169 2 115 4C84 4 66-9 55-30l1 105H24l-1-265h31l2 30c10-21 28-34 59-34zm-8 174c40 0 45-34 45-75s-6-73-45-74c-42 0-51 32-51 76 0 43 10 73 51 73" id="C"/><g id="g"><use transform="matrix(0.05,0,0,0.05,0,0)" xlink:href="#B"/><use transform="matrix(0.05,0,0,0.05,12,0)" xlink:href="#y"/><use transform="matrix(0.05,0,0,0.05,22,0)" xlink:href="#C"/><use transform="matrix(0.05,0,0,0.05,32,0)" xlink:href="#l"/><use transform="matrix(0.05,0,0,0.05,42,0)" xlink:href="#m"/></g></defs></g></svg>