<svg xmlns="http://www.w3.org/2000/svg" xmlns:xlink="http://www.w3.org/1999/xlink" xmlns:lucid="lucid" width="920" height="340"><g transform="translate(-300 -300)" lucid:page-tab-id="0_0"><path d="M440 360c0 22.1-17.9 40-40 40s-40-17.9-40-40 17.9-40 40-40 40 17.9 40 40z" stroke="#000" stroke-width="2" fill="#fff"/><use xlink:href="#a" transform="matrix(1,0,0,1,365,325) translate(24.05 27.799999999999997)"/><use xlink:href="#b" transform="matrix(1,0,0,1,365,325) translate(9.5 49.4)"/><path d="M680 360c0 22.1-17.9 40-40 40s-40-17.9-40-40 17.9-40 40-40 40 17.9 40 40z" stroke="#000" stroke-width="2" fill="#fff"/><use xlink:href="#c" transform="matrix(1,0,0,1,605,325) translate(24.05 28.299999999999997)"/><use xlink:href="#d" transform="matrix(1,0,0,1,605,325) translate(6 49.9)"/><path d="M920 360c0 22.1-17.9 40-40 40s-40-17.9-40-40 17.9-40 40-40 40 17.9 40 40z" stroke="#000" stroke-width="2" fill="#fff"/><use xlink:href="#e" transform="matrix(1,0,0,1,845,325) translate(24.05 27.799999999999997)"/><use xlink:href="#f" transform="matrix(1,0,0,1,845,325) translate(2.549999999999997 49.4)"/><path d="M1160 360c0 22.1-17.9 40-40 40s-40-17.9-40-40 17.9-40 40-40 40 17.9 40 40z" stroke="#000" stroke-width="2" fill="#fff"/><use xlink:href="#g" transform="matrix(1,0,0,1,1085,325) translate(24.05 27.799999999999997)"/><use xlink:href="#h" transform="matrix(1,0,0,1,1085,325) translate(6.524999999999999 49.4)"/><path d="M320 480h160v80H320z" stroke="#000" stroke-width="2" fill="#fff"/><use xlink:href="#i" transform="matrix(1,0,0,1,325,485) translate(41.65 38.6)"/><path d="M560 420h160v40H560z" stroke="#000" stroke-width="2" fill="#fff"/><use xlink:href="#j" transform="matrix(1,0,0,1,565,425) translate(18.099999999999994 18.6)"/><use xlink:href="#k" transform="matrix(1,0,0,1,565,425) translate(81.95 18.6)"/><use xlink:href="#l" transform="matrix(1,0,0,1,565,425) translate(121.9 18.6)"/><path d="M560 480h160v40H560z" stroke="#000" stroke-width="2" fill="#fff"/><use xlink:href="#j" transform="matrix(1,0,0,1,565,485) translate(18.099999999999994 18.6)"/><use xlink:href="#k" transform="matrix(1,0,0,1,565,485) translate(81.95 18.6)"/><use xlink:href="#m" transform="matrix(1,0,0,1,565,485) translate(121.9 18.6)"/><path d="M560 580h160v40H560z" stroke="#000" stroke-width="2" fill="#fff"/><use xlink:href="#j" transform="matrix(1,0,0,1,565,585) translate(17.099999999999994 18.6)"/><use xlink:href="#k" transform="matrix(1,0,0,1,565,585) translate(80.95 18.6)"/><use xlink:href="#n" transform="matrix(1,0,0,1,565,585) translate(120.9 18.6)"/><path d="M481.7 519.3l64.22-64.22" stroke="#000" stroke-width="2" fill="none"/><path d="M482.43 519.98L481 521.4v-2.8l.02-.03z"/><path d="M556.7 444.3l-6.8 13.35-6.55-6.55z" stroke="#000" stroke-width="2"/><path d="M481.97 519.75l59.1-15.15" stroke="#000" stroke-width="2" fill="none"/><path d="M482.24 520.7l-1.24.33v-2.06l.75-.2z"/><path d="M555.87 500.8l-12.67 8.04-2.3-8.98z" stroke="#000" stroke-width="2"/><path d="M560 519.53h160v60.94H560z" stroke="#000" stroke-opacity="0" stroke-width="2" fill="#fff" fill-opacity="0"/><use xlink:href="#o" transform="matrix(1,0,0,1,565,524.5333333333333) translate(57.31481481481483 33.98888888888888)"/><path d="M481.7 520.7l64.22 64.22" stroke="#000" stroke-width="2" fill="none"/><path d="M482.43 520.02l-1.4 1.4H481v-2.83z"/><path d="M556.7 595.7l-13.35-6.8 6.55-6.55z" stroke="#000" stroke-width="2"/><path d="M722 440h58.5" stroke="#000" stroke-width="2" fill="none"/><path d="M722.03 441H721v-2h1.03z"/><path d="M795.76 440l-14.26 4.64v-9.28z" stroke="#000" stroke-width="2"/><path d="M800 420h160v40H800z" stroke="#000" stroke-width="2" fill="#fff"/><use xlink:href="#j" transform="matrix(1,0,0,1,805,425) translate(18.099999999999994 18.6)"/><use xlink:href="#k" transform="matrix(1,0,0,1,805,425) translate(81.95 18.6)"/><use xlink:href="#l" transform="matrix(1,0,0,1,805,425) translate(121.9 18.6)"/><path d="M800 479.53h160v40H800z" stroke="#000" stroke-width="2" fill="#fff"/><use xlink:href="#j" transform="matrix(1,0,0,1,805,484.53333333333336) translate(18.099999999999994 18.6)"/><use xlink:href="#k" transform="matrix(1,0,0,1,805,484.53333333333336) translate(81.95 18.6)"/><use xlink:href="#m" transform="matrix(1,0,0,1,805,484.53333333333336) translate(121.9 18.6)"/><path d="M722 500h59.5" stroke="#000" stroke-width="2" fill="none"/><path d="M722.03 501H721v-2h1.03z"/><path d="M796.76 500l-14.26 4.64v-9.28z" stroke="#000" stroke-width="2"/><path d="M800 580h160v40H800z" stroke="#000" stroke-width="2" fill="#fff"/><use xlink:href="#j" transform="matrix(1,0,0,1,805,585) translate(17.099999999999994 18.6)"/><use xlink:href="#k" transform="matrix(1,0,0,1,805,585) translate(80.95 18.6)"/><use xlink:href="#n" transform="matrix(1,0,0,1,805,585) translate(120.9 18.6)"/><path d="M722 600h59.5" stroke="#000" stroke-width="2" fill="none"/><path d="M722.03 601H721v-2h1.03z"/><path d="M796.76 600l-14.26 4.64v-9.28z" stroke="#000" stroke-width="2"/><path d="M800 519.07h160V580H800z" stroke="#000" stroke-opacity="0" stroke-width="2" fill="#fff" fill-opacity="0"/><g><use xlink:href="#o" transform="matrix(1,0,0,1,805,524.0666666666666) translate(57.31481481481483 33.98888888888888)"/></g><path d="M1040 479.53h160v80h-160z" stroke="#000" stroke-width="2" fill="#fff"/><g><use xlink:href="#i" transform="matrix(1,0,0,1,1045,484.5333333333333) translate(41.65 38.6)"/></g><path d="M961.7 440.7l64.22 64.22" stroke="#000" stroke-width="2" fill="none"/><path d="M962.43 440.02l-1.4 1.4H961v-2.83z"/><path d="M1036.7 515.7l-13.35-6.8 6.55-6.55z" stroke="#000" stroke-width="2"/><path d="M961.97 499.78l59.1 15.16" stroke="#000" stroke-width="2" fill="none"/><path d="M962.24 498.82l-.5 1.94-.74-.2v-2.06z"/><path d="M1035.87 518.73l-14.97.95 2.3-8.98z" stroke="#000" stroke-width="2"/><path d="M961.7 599.3l64.22-64.22" stroke="#000" stroke-width="2" fill="none"/><path d="M962.43 599.98L961 601.4v-2.8l.02-.03z"/><path d="M1036.7 524.3l-6.8 13.35-6.55-6.55z" stroke="#000" stroke-width="2"/><defs><path d="M87 75C49 33 22-17 22-94c0-76 28-126 65-167h31c-38 41-64 92-64 168S80 34 118 75H87" id="p"/><path d="M27 0v-27h64v-190l-56 39v-29l58-41h29v221h61V0H27" id="q"/><path d="M33-261c38 41 65 92 65 168S71 34 33 75H2C39 34 66-17 66-93S39-220 2-261h31" id="r"/><g id="a"><use transform="matrix(0.05,0,0,0.05,0,0)" xlink:href="#p"/><use transform="matrix(0.05,0,0,0.05,5.95,0)" xlink:href="#q"/><use transform="matrix(0.05,0,0,0.05,15.949999999999998,0)" xlink:href="#r"/></g><path d="M185-189c-5-48-123-54-124 2 14 75 158 14 163 119 3 78-121 87-175 55-17-10-28-26-33-46l33-7c5 56 141 63 141-1 0-78-155-14-162-118-5-82 145-84 179-34 5 7 8 16 11 25" id="s"/><path d="M96-169c-40 0-48 33-48 73s9 75 48 75c24 0 41-14 43-38l32 2c-6 37-31 61-74 61-59 0-76-41-82-99-10-93 101-131 147-64 4 7 5 14 7 22l-32 3c-4-21-16-35-41-35" id="t"/><path d="M100-194c62-1 85 37 85 99 1 63-27 99-86 99S16-35 15-95c0-66 28-99 85-99zM99-20c44 1 53-31 53-75 0-43-8-75-51-75s-53 32-53 75 10 74 51 75" id="u"/><path d="M115-194c55 1 70 41 70 98S169 2 115 4C84 4 66-9 55-30l1 105H24l-1-265h31l2 30c10-21 28-34 59-34zm-8 174c40 0 45-34 45-75s-6-73-45-74c-42 0-51 32-51 76 0 43 10 73 51 73" id="v"/><path d="M100-194c63 0 86 42 84 106H49c0 40 14 67 53 68 26 1 43-12 49-29l28 8c-11 28-37 45-77 45C44 4 14-33 15-96c1-61 26-98 85-98zm52 81c6-60-76-77-97-28-3 7-6 17-6 28h103" id="w"/><g id="b"><use transform="matrix(0.05,0,0,0.05,0,0)" xlink:href="#s"/><use transform="matrix(0.05,0,0,0.05,12,0)" xlink:href="#t"/><use transform="matrix(0.05,0,0,0.05,21,0)" xlink:href="#u"/><use transform="matrix(0.05,0,0,0.05,31,0)" xlink:href="#v"/><use transform="matrix(0.05,0,0,0.05,41,0)" xlink:href="#w"/></g><path d="M101-251c82-7 93 87 43 132L82-64C71-53 59-42 53-27h129V0H18c2-99 128-94 128-182 0-28-16-43-45-43s-46 15-49 41l-32-3c6-41 34-60 81-64" id="x"/><g id="c"><use transform="matrix(0.05,0,0,0.05,0,0)" xlink:href="#p"/><use transform="matrix(0.05,0,0,0.05,5.95,0)" xlink:href="#x"/><use transform="matrix(0.05,0,0,0.05,15.949999999999998,0)" xlink:href="#r"/></g><path d="M205 0l-28-72H64L36 0H1l101-248h38L239 0h-34zm-38-99l-47-123c-12 45-31 82-46 123h93" id="y"/><path d="M135-143c-3-34-86-38-87 0 15 53 115 12 119 90S17 21 10-45l28-5c4 36 97 45 98 0-10-56-113-15-118-90-4-57 82-63 122-42 12 7 21 19 24 35" id="z"/><g id="d"><use transform="matrix(0.05,0,0,0.05,0,0)" xlink:href="#y"/><use transform="matrix(0.05,0,0,0.05,12,0)" xlink:href="#z"/><use transform="matrix(0.05,0,0,0.05,21,0)" xlink:href="#z"/><use transform="matrix(0.05,0,0,0.05,30,0)" xlink:href="#w"/><use transform="matrix(0.05,0,0,0.05,40,0)" xlink:href="#z"/><use transform="matrix(0.05,0,0,0.05,49,0)" xlink:href="#z"/></g><path d="M126-127c33 6 58 20 58 59 0 88-139 92-164 29-3-8-5-16-6-25l32-3c6 27 21 44 54 44 32 0 52-15 52-46 0-38-36-46-79-43v-28c39 1 72-4 72-42 0-27-17-43-46-43-28 0-47 15-49 41l-32-3c6-42 35-63 81-64 48-1 79 21 79 65 0 36-21 52-52 59" id="A"/><g id="e"><use transform="matrix(0.05,0,0,0.05,0,0)" xlink:href="#p"/><use transform="matrix(0.05,0,0,0.05,5.95,0)" xlink:href="#A"/><use transform="matrix(0.05,0,0,0.05,15.949999999999998,0)" xlink:href="#r"/></g><path d="M33 0v-248h34V0H33" id="B"/><path d="M210-169c-67 3-38 105-44 169h-31v-121c0-29-5-50-35-48C34-165 62-65 56 0H25l-1-190h30c1 10-1 24 2 32 10-44 99-50 107 0 11-21 27-35 58-36 85-2 47 119 55 194h-31v-121c0-29-5-49-35-48" id="C"/><path d="M114-163C36-179 61-72 57 0H25l-1-190h30c1 12-1 29 2 39 6-27 23-49 58-41v29" id="D"/><path d="M108 0H70L1-190h34L89-25l56-165h34" id="E"/><g id="f"><use transform="matrix(0.05,0,0,0.05,0,0)" xlink:href="#B"/><use transform="matrix(0.05,0,0,0.05,5,0)" xlink:href="#C"/><use transform="matrix(0.05,0,0,0.05,19.950000000000003,0)" xlink:href="#v"/><use transform="matrix(0.05,0,0,0.05,29.950000000000003,0)" xlink:href="#D"/><use transform="matrix(0.05,0,0,0.05,35.900000000000006,0)" xlink:href="#u"/><use transform="matrix(0.05,0,0,0.05,45.900000000000006,0)" xlink:href="#E"/><use transform="matrix(0.05,0,0,0.05,54.900000000000006,0)" xlink:href="#w"/></g><path d="M155-56V0h-30v-56H8v-25l114-167h33v167h35v25h-35zm-30-156c-27 46-58 90-88 131h88v-131" id="F"/><g id="g"><use transform="matrix(0.05,0,0,0.05,0,0)" xlink:href="#p"/><use transform="matrix(0.05,0,0,0.05,5.95,0)" xlink:href="#F"/><use transform="matrix(0.05,0,0,0.05,15.949999999999998,0)" xlink:href="#r"/></g><path d="M233-177c-1 41-23 64-60 70L243 0h-38l-65-103H63V0H30v-248c88 3 205-21 203 71zM63-129c60-2 137 13 137-47 0-61-80-42-137-45v92" id="G"/><path d="M115-194c53 0 69 39 70 98 0 66-23 100-70 100C84 3 66-7 56-30L54 0H23l1-261h32v101c10-23 28-34 59-34zm-8 174c40 0 45-34 45-75 0-40-5-75-45-74-42 0-51 32-51 76 0 43 10 73 51 73" id="H"/><path d="M84 4C-5 8 30-112 23-190h32v120c0 31 7 50 39 49 72-2 45-101 50-169h31l1 190h-30c-1-10 1-25-2-33-11 22-28 36-60 37" id="I"/><path d="M59-47c-2 24 18 29 38 22v24C64 9 27 4 27-40v-127H5v-23h24l9-43h21v43h35v23H59v120" id="J"/><g id="h"><use transform="matrix(0.05,0,0,0.05,0,0)" xlink:href="#G"/><use transform="matrix(0.05,0,0,0.05,12.950000000000001,0)" xlink:href="#u"/><use transform="matrix(0.05,0,0,0.05,22.950000000000003,0)" xlink:href="#H"/><use transform="matrix(0.05,0,0,0.05,32.95,0)" xlink:href="#I"/><use transform="matrix(0.05,0,0,0.05,42.95,0)" xlink:href="#z"/><use transform="matrix(0.05,0,0,0.05,51.95,0)" xlink:href="#J"/></g><path d="M212-179c-10-28-35-45-73-45-59 0-87 40-87 99 0 60 29 101 89 101 43 0 62-24 78-52l27 14C228-24 195 4 139 4 59 4 22-46 18-125c-6-104 99-153 187-111 19 9 31 26 39 46" id="K"/><path d="M24 0v-261h32V0H24" id="L"/><path d="M141-36C126-15 110 5 73 4 37 3 15-17 15-53c-1-64 63-63 125-63 3-35-9-54-41-54-24 1-41 7-42 31l-33-3c5-37 33-52 76-52 45 0 72 20 72 64v82c-1 20 7 32 28 27v20c-31 9-61-2-59-35zM48-53c0 20 12 33 32 33 41-3 63-29 60-74-43 2-92-5-92 41" id="M"/><path d="M24-231v-30h32v30H24zM24 0v-190h32V0H24" id="N"/><g id="i"><use transform="matrix(0.05,0,0,0.05,0,0)" xlink:href="#K"/><use transform="matrix(0.05,0,0,0.05,12.950000000000001,0)" xlink:href="#L"/><use transform="matrix(0.05,0,0,0.05,16.900000000000002,0)" xlink:href="#M"/><use transform="matrix(0.05,0,0,0.05,26.900000000000002,0)" xlink:href="#N"/><use transform="matrix(0.05,0,0,0.05,30.85,0)" xlink:href="#C"/><use transform="matrix(0.05,0,0,0.05,45.800000000000004,0)" xlink:href="#p"/><use transform="matrix(0.05,0,0,0.05,51.75,0)" xlink:href="#z"/><use transform="matrix(0.05,0,0,0.05,60.75,0)" xlink:href="#r"/></g><path d="M30-248c118-7 216 8 213 122C240-48 200 0 122 0H30v-248zM63-27c89 8 146-16 146-99s-60-101-146-95v194" id="O"/><path d="M179-190L93 31C79 59 56 82 12 73V49c39 6 53-20 64-50L1-190h34L92-34l54-156h33" id="P"/><g id="j"><use transform="matrix(0.05,0,0,0.05,0,0)" xlink:href="#O"/><use transform="matrix(0.05,0,0,0.05,12.950000000000001,0)" xlink:href="#N"/><use transform="matrix(0.05,0,0,0.05,16.900000000000002,0)" xlink:href="#z"/><use transform="matrix(0.05,0,0,0.05,25.900000000000002,0)" xlink:href="#v"/><use transform="matrix(0.05,0,0,0.05,35.900000000000006,0)" xlink:href="#L"/><use transform="matrix(0.05,0,0,0.05,39.85000000000001,0)" xlink:href="#M"/><use transform="matrix(0.05,0,0,0.05,49.85000000000001,0)" xlink:href="#P"/></g><g id="k"><use transform="matrix(0.05,0,0,0.05,0,0)" xlink:href="#B"/><use transform="matrix(0.05,0,0,0.05,5,0)" xlink:href="#J"/><use transform="matrix(0.05,0,0,0.05,10,0)" xlink:href="#w"/><use transform="matrix(0.05,0,0,0.05,20,0)" xlink:href="#C"/></g><use transform="matrix(0.05,0,0,0.05,0,0)" xlink:href="#q" id="l"/><use transform="matrix(0.05,0,0,0.05,0,0)" xlink:href="#x" id="m"/><path d="M194 0L95-120 63-95V0H30v-248h33v124l119-124h40L117-140 236 0h-42" id="Q"/><use transform="matrix(0.05,0,0,0.05,0,0)" xlink:href="#Q" id="n"/><path d="M33 0v-38h34V0H33" id="R"/><g id="o"><use transform="matrix(0.11790123456790114,0,0,0.11790123456790114,0,0)" xlink:href="#R"/><use transform="matrix(0.11790123456790114,0,0,0.11790123456790114,11.790123456790113,0)" xlink:href="#R"/><use transform="matrix(0.11790123456790114,0,0,0.11790123456790114,23.580246913580226,0)" xlink:href="#R"/></g></defs></g></svg>