<?xml version="1.0" encoding="UTF-8" standalone="no"?>
<!DOCTYPE svg PUBLIC "-//W3C//DTD SVG 1.1//EN"
 "http://www.w3.org/Graphics/SVG/1.1/DTD/svg11.dtd">
<!-- Generated by graphviz version 2.40.1 (20161225.0304)
 -->
<!-- Title: a_nice_graph Pages: 1 -->
<svg width="521pt" height="514pt"
 viewBox="0.00 0.00 520.76 513.66" xmlns="http://www.w3.org/2000/svg" xmlns:xlink="http://www.w3.org/1999/xlink">
<g id="graph0" class="graph" transform="scale(1 1) rotate(0) translate(4 509.659)">
<title>a_nice_graph</title>
<polygon fill="#ffffff" stroke="transparent" points="-4,4 -4,-509.659 516.7577,-509.659 516.7577,4 -4,4"/>
<!-- paper -->
<g id="node1" class="node">
<title>paper</title>
<polygon fill="none" stroke="#000000" points="290.4296,-281.6092 236.4296,-281.6092 236.4296,-245.6092 290.4296,-245.6092 290.4296,-281.6092"/>
<text text-anchor="middle" x="263.4296" y="-259.4092" font-family="Helvetica,sans-Serif" font-size="14.00" fill="#000000">Paper</text>
</g>
<!-- claim1 -->
<g id="node2" class="node">
<title>claim1</title>
<polygon fill="none" stroke="#ff0000" points="333.6167,-340.591 306.6167,-322.591 333.6167,-304.591 360.6167,-322.591 333.6167,-340.591"/>
<text text-anchor="middle" x="333.6167" y="-319.591" font-family="Helvetica,sans-Serif" font-size="10.00" fill="#000000">Claim 1</text>
</g>
<!-- paper&#45;&gt;claim1 -->
<g id="edge1" class="edge">
<title>paper&#45;&gt;claim1</title>
<path fill="none" stroke="#ff0000" d="M284.8694,-281.6262C294.0056,-289.3037 304.6044,-298.2105 313.5811,-305.7541"/>
<polygon fill="#ff0000" stroke="#ff0000" points="311.373,-308.4703 321.2805,-312.2243 315.8765,-303.1112 311.373,-308.4703"/>
</g>
<!-- claim2 -->
<g id="node3" class="node">
<title>claim2</title>
<polygon fill="none" stroke="#000000" points="279.4803,-191.3375 252.4803,-173.3375 279.4803,-155.3375 306.4803,-173.3375 279.4803,-191.3375"/>
<text text-anchor="middle" x="279.4803" y="-170.3375" font-family="Helvetica,sans-Serif" font-size="10.00" fill="#000000">Claim 2</text>
</g>
<!-- paper&#45;&gt;claim2 -->
<g id="edge2" class="edge">
<title>paper&#45;&gt;claim2</title>
<path fill="none" stroke="#000000" d="M266.6777,-245.3414C269.0217,-232.1582 272.2206,-214.167 274.8344,-199.4667"/>
<polygon fill="#000000" stroke="#000000" points="278.3089,-199.9183 276.6136,-189.46 271.417,-198.6928 278.3089,-199.9183"/>
</g>
<!-- claim3 -->
<g id="node4" class="node">
<title>claim3</title>
<polygon fill="none" stroke="#000000" points="177.2641,-313.0052 150.2641,-295.0052 177.2641,-277.0052 204.2641,-295.0052 177.2641,-313.0052"/>
<text text-anchor="middle" x="177.2641" y="-292.0052" font-family="Helvetica,sans-Serif" font-size="10.00" fill="#000000">Claim 3</text>
</g>
<!-- paper&#45;&gt;claim3 -->
<g id="edge3" class="edge">
<title>paper&#45;&gt;claim3</title>
<path fill="none" stroke="#000000" d="M236.1663,-273.5431C226.0343,-277.2349 214.5467,-281.4206 204.4239,-285.109"/>
<polygon fill="#000000" stroke="#000000" points="203.0543,-281.8829 194.8568,-288.595 205.4508,-288.4599 203.0543,-281.8829"/>
</g>
<!-- output1 -->
<g id="node5" class="node">
<title>output1</title>
<ellipse fill="none" stroke="#ff0000" cx="343.5323" cy="-408.4779" rx="18" ry="18"/>
<text text-anchor="middle" x="343.5323" y="-405.4779" font-family="Helvetica,sans-Serif" font-size="10.00" fill="#000000">DI 1</text>
</g>
<!-- claim1&#45;&gt;output1 -->
<g id="edge4" class="edge">
<title>claim1&#45;&gt;output1</title>
<path fill="none" stroke="#ff0000" d="M335.5757,-339.5595C336.9117,-351.1319 338.7132,-366.7355 340.2641,-380.169"/>
<polygon fill="#ff0000" stroke="#ff0000" points="336.8166,-380.8261 341.4405,-390.3586 343.7704,-380.0232 336.8166,-380.8261"/>
</g>
<!-- output2 -->
<g id="node6" class="node">
<title>output2</title>
<ellipse fill="none" stroke="#000000" cx="419.9103" cy="-318.1492" rx="18" ry="18"/>
<text text-anchor="middle" x="419.9103" y="-315.1492" font-family="Helvetica,sans-Serif" font-size="10.00" fill="#000000">DI 2</text>
</g>
<!-- claim1&#45;&gt;output2 -->
<g id="edge5" class="edge">
<title>claim1&#45;&gt;output2</title>
<path fill="none" stroke="#000000" d="M359.0409,-321.2823C369.2248,-320.7581 381.0032,-320.1518 391.4699,-319.6131"/>
<polygon fill="#000000" stroke="#000000" points="391.974,-323.0919 401.7809,-319.0823 391.6141,-316.1011 391.974,-323.0919"/>
</g>
<!-- output3 -->
<g id="node7" class="node">
<title>output3</title>
<ellipse fill="none" stroke="#000000" cx="232.6401" cy="-100.8015" rx="18" ry="18"/>
<text text-anchor="middle" x="232.6401" y="-97.8015" font-family="Helvetica,sans-Serif" font-size="10.00" fill="#000000">DI 3</text>
</g>
<!-- claim2&#45;&gt;output3 -->
<g id="edge6" class="edge">
<title>claim2&#45;&gt;output3</title>
<path fill="none" stroke="#000000" d="M271.3213,-160.7027C264.93,-150.8051 255.8527,-136.7482 248.0977,-124.7389"/>
<polygon fill="#000000" stroke="#000000" points="250.8565,-122.5592 242.4915,-116.0571 244.976,-126.3565 250.8565,-122.5592"/>
</g>
<!-- output4 -->
<g id="node8" class="node">
<title>output4</title>
<ellipse fill="none" stroke="#000000" cx="348.5222" cy="-121.4487" rx="18" ry="18"/>
<text text-anchor="middle" x="348.5222" y="-118.4487" font-family="Helvetica,sans-Serif" font-size="10.00" fill="#000000">DI 4</text>
</g>
<!-- claim2&#45;&gt;output4 -->
<g id="edge7" class="edge">
<title>claim2&#45;&gt;output4</title>
<path fill="none" stroke="#000000" d="M292.4665,-163.5776C301.8048,-156.5594 314.6435,-146.9104 325.678,-138.6174"/>
<polygon fill="#000000" stroke="#000000" points="327.7853,-141.412 333.6765,-132.606 323.5797,-135.8161 327.7853,-141.412"/>
</g>
<!-- output5 -->
<g id="node9" class="node">
<title>output5</title>
<ellipse fill="none" stroke="#000000" cx="138.3011" cy="-372.1219" rx="18" ry="18"/>
<text text-anchor="middle" x="138.3011" y="-369.1219" font-family="Helvetica,sans-Serif" font-size="10.00" fill="#000000">DI 5</text>
</g>
<!-- claim3&#45;&gt;output5 -->
<g id="edge8" class="edge">
<title>claim3&#45;&gt;output5</title>
<path fill="none" stroke="#000000" d="M170.2983,-308.7921C164.9608,-319.3562 157.4497,-334.2224 151.0461,-346.8967"/>
<polygon fill="#000000" stroke="#000000" points="147.8051,-345.5501 146.4194,-356.054 154.0529,-348.7069 147.8051,-345.5501"/>
</g>
<!-- output6 -->
<g id="node10" class="node">
<title>output6</title>
<ellipse fill="none" stroke="#000000" cx="97.6681" cy="-261.4627" rx="18" ry="18"/>
<text text-anchor="middle" x="97.6681" y="-258.4627" font-family="Helvetica,sans-Serif" font-size="10.00" fill="#000000">DI 6</text>
</g>
<!-- claim3&#45;&gt;output6 -->
<g id="edge9" class="edge">
<title>claim3&#45;&gt;output6</title>
<path fill="none" stroke="#000000" d="M160.3838,-287.8917C149.8309,-283.4446 136.0169,-277.6232 124.0403,-272.5762"/>
<polygon fill="#000000" stroke="#000000" points="125.0984,-269.224 114.524,-268.5659 122.38,-275.6747 125.0984,-269.224"/>
</g>
<!-- spec1 -->
<g id="node11" class="node">
<title>spec1</title>
<ellipse fill="none" stroke="#ff0000" cx="404.82" cy="-465.0833" rx="18" ry="18"/>
<text text-anchor="middle" x="404.82" y="-462.0833" font-family="Helvetica,sans-Serif" font-size="10.00" fill="#000000">S 1</text>
</g>
<!-- output1&#45;&gt;spec1 -->
<g id="edge10" class="edge">
<title>output1&#45;&gt;spec1</title>
<path fill="none" stroke="#ff0000" d="M356.8309,-420.7605C364.7818,-428.1039 375.0556,-437.5929 384.0561,-445.9057"/>
<polygon fill="#ff0000" stroke="#ff0000" points="381.8266,-448.611 391.5474,-452.8247 386.576,-443.4687 381.8266,-448.611"/>
</g>
<!-- spec2 -->
<g id="node12" class="node">
<title>spec2</title>
<ellipse fill="none" stroke="#000000" cx="325.3668" cy="-487.659" rx="18" ry="18"/>
<text text-anchor="middle" x="325.3668" y="-484.659" font-family="Helvetica,sans-Serif" font-size="10.00" fill="#000000">S 2</text>
</g>
<!-- output1&#45;&gt;spec2 -->
<g id="edge11" class="edge">
<title>output1&#45;&gt;spec2</title>
<path fill="none" stroke="#000000" d="M339.5008,-426.0508C337.212,-436.0273 334.2958,-448.7388 331.7074,-460.0213"/>
<polygon fill="#000000" stroke="#000000" points="328.2746,-459.332 329.4498,-469.8615 335.0974,-460.8973 328.2746,-459.332"/>
</g>
<!-- spec3 -->
<g id="node13" class="node">
<title>spec3</title>
<ellipse fill="none" stroke="#000000" cx="494.7577" cy="-286.6736" rx="18" ry="18"/>
<text text-anchor="middle" x="494.7577" y="-283.6736" font-family="Helvetica,sans-Serif" font-size="10.00" fill="#000000">S 3</text>
</g>
<!-- output2&#45;&gt;spec3 -->
<g id="edge12" class="edge">
<title>output2&#45;&gt;spec3</title>
<path fill="none" stroke="#000000" d="M436.5213,-311.1637C445.9518,-307.1979 457.9677,-302.1449 468.6326,-297.66"/>
<polygon fill="#000000" stroke="#000000" points="470.0729,-300.8512 477.9342,-293.7484 467.3593,-294.3986 470.0729,-300.8512"/>
</g>
<!-- spec4 -->
<g id="node14" class="node">
<title>spec4</title>
<ellipse fill="none" stroke="#000000" cx="485.9714" cy="-369.0355" rx="18" ry="18"/>
<text text-anchor="middle" x="485.9714" y="-366.0355" font-family="Helvetica,sans-Serif" font-size="10.00" fill="#000000">S 4</text>
</g>
<!-- output2&#45;&gt;spec4 -->
<g id="edge13" class="edge">
<title>output2&#45;&gt;spec4</title>
<path fill="none" stroke="#000000" d="M434.2446,-329.1907C442.8148,-335.7923 453.8888,-344.3225 463.5903,-351.7955"/>
<polygon fill="#000000" stroke="#000000" points="461.6071,-354.6858 471.6651,-358.0155 465.8788,-349.1403 461.6071,-354.6858"/>
</g>
<!-- spec5 -->
<g id="node15" class="node">
<title>spec5</title>
<ellipse fill="none" stroke="#000000" cx="166.645" cy="-53.6251" rx="18" ry="18"/>
<text text-anchor="middle" x="166.645" y="-50.6251" font-family="Helvetica,sans-Serif" font-size="10.00" fill="#000000">S 5</text>
</g>
<!-- output3&#45;&gt;spec5 -->
<g id="edge14" class="edge">
<title>output3&#45;&gt;spec5</title>
<path fill="none" stroke="#000000" d="M217.9937,-90.3315C209.7367,-84.429 199.2319,-76.9197 189.8777,-70.2329"/>
<polygon fill="#000000" stroke="#000000" points="191.8787,-67.361 181.7081,-64.3929 187.8079,-73.0557 191.8787,-67.361"/>
</g>
<!-- spec6 -->
<g id="node16" class="node">
<title>spec6</title>
<ellipse fill="none" stroke="#000000" cx="241.6416" cy="-18" rx="18" ry="18"/>
<text text-anchor="middle" x="241.6416" y="-15" font-family="Helvetica,sans-Serif" font-size="10.00" fill="#000000">S 6</text>
</g>
<!-- output3&#45;&gt;spec6 -->
<g id="edge15" class="edge">
<title>output3&#45;&gt;spec6</title>
<path fill="none" stroke="#000000" d="M234.5933,-82.8348C235.7611,-72.0928 237.27,-58.2125 238.5919,-46.0526"/>
<polygon fill="#000000" stroke="#000000" points="242.0909,-46.2513 239.6922,-35.9316 235.1319,-45.4948 242.0909,-46.2513"/>
</g>
<!-- spec7 -->
<g id="node17" class="node">
<title>spec7</title>
<ellipse fill="none" stroke="#000000" cx="368.8976" cy="-40.6856" rx="18" ry="18"/>
<text text-anchor="middle" x="368.8976" y="-37.6856" font-family="Helvetica,sans-Serif" font-size="10.00" fill="#000000">S 7</text>
</g>
<!-- output4&#45;&gt;spec7 -->
<g id="edge16" class="edge">
<title>output4&#45;&gt;spec7</title>
<path fill="none" stroke="#000000" d="M352.9434,-103.9243C355.5867,-93.4468 359.0023,-79.9082 361.9945,-68.0476"/>
<polygon fill="#000000" stroke="#000000" points="365.4324,-68.7282 364.485,-58.1758 358.6451,-67.0158 365.4324,-68.7282"/>
</g>
<!-- spec8 -->
<g id="node18" class="node">
<title>spec8</title>
<ellipse fill="none" stroke="#000000" cx="426.7995" cy="-100.0849" rx="18" ry="18"/>
<text text-anchor="middle" x="426.7995" y="-97.0849" font-family="Helvetica,sans-Serif" font-size="10.00" fill="#000000">S 8</text>
</g>
<!-- output4&#45;&gt;spec8 -->
<g id="edge17" class="edge">
<title>output4&#45;&gt;spec8</title>
<path fill="none" stroke="#000000" d="M365.8945,-116.7074C375.7571,-114.0156 388.3236,-110.5859 399.4772,-107.5418"/>
<polygon fill="#000000" stroke="#000000" points="400.4795,-110.8963 409.2051,-104.8868 398.6364,-104.1433 400.4795,-110.8963"/>
</g>
<!-- spec9 -->
<g id="node19" class="node">
<title>spec9</title>
<ellipse fill="none" stroke="#000000" cx="62.1744" cy="-406.0331" rx="18" ry="18"/>
<text text-anchor="middle" x="62.1744" y="-403.0331" font-family="Helvetica,sans-Serif" font-size="10.00" fill="#000000">S 9</text>
</g>
<!-- output5&#45;&gt;spec9 -->
<g id="edge18" class="edge">
<title>output5&#45;&gt;spec9</title>
<path fill="none" stroke="#000000" d="M121.7827,-379.4801C111.9067,-383.8795 99.1454,-389.5641 87.9657,-394.5442"/>
<polygon fill="#000000" stroke="#000000" points="86.371,-391.4229 78.6605,-398.6893 89.2194,-397.8172 86.371,-391.4229"/>
</g>
<!-- spec10 -->
<g id="node20" class="node">
<title>spec10</title>
<ellipse fill="none" stroke="#000000" cx="130.3654" cy="-452.9185" rx="18" ry="18"/>
<text text-anchor="middle" x="130.3654" y="-449.9185" font-family="Helvetica,sans-Serif" font-size="10.00" fill="#000000">S 10</text>
</g>
<!-- output5&#45;&gt;spec10 -->
<g id="edge19" class="edge">
<title>output5&#45;&gt;spec10</title>
<path fill="none" stroke="#000000" d="M136.5399,-390.0533C135.54,-400.2333 134.2661,-413.2042 133.1353,-424.7169"/>
<polygon fill="#000000" stroke="#000000" points="129.6434,-424.4636 132.1491,-434.7579 136.6099,-425.1479 129.6434,-424.4636"/>
</g>
<!-- spec11 -->
<g id="node21" class="node">
<title>spec11</title>
<ellipse fill="none" stroke="#000000" cx="18" cy="-285.9434" rx="18" ry="18"/>
<text text-anchor="middle" x="18" y="-282.9434" font-family="Helvetica,sans-Serif" font-size="10.00" fill="#000000">S 10</text>
</g>
<!-- output6&#45;&gt;spec11 -->
<g id="edge20" class="edge">
<title>output6&#45;&gt;spec11</title>
<path fill="none" stroke="#000000" d="M80.3813,-266.7746C70.0459,-269.9506 56.6908,-274.0543 44.9911,-277.6495"/>
<polygon fill="#000000" stroke="#000000" points="43.7839,-274.3589 35.2531,-280.6418 45.84,-281.0501 43.7839,-274.3589"/>
</g>
<!-- spec12 -->
<g id="node22" class="node">
<title>spec12</title>
<ellipse fill="none" stroke="#000000" cx="38.789" cy="-205.6205" rx="18" ry="18"/>
<text text-anchor="middle" x="38.789" y="-202.6205" font-family="Helvetica,sans-Serif" font-size="10.00" fill="#000000">S 10</text>
</g>
<!-- output6&#45;&gt;spec12 -->
<g id="edge21" class="edge">
<title>output6&#45;&gt;spec12</title>
<path fill="none" stroke="#000000" d="M84.6009,-249.0695C77.2343,-242.0828 67.8622,-233.1941 59.5166,-225.279"/>
<polygon fill="#000000" stroke="#000000" points="61.8922,-222.7082 52.2279,-218.3662 57.0751,-227.7872 61.8922,-222.7082"/>
</g>
</g>
</svg>

